# xmcd
#
# Track frame offsets: 
#        150
#        20624
#        39667
#        56464
#        70379
#        90991
#        110358
#        130885
#        154831
#        171555
#        194270
#        208459
#        233087
#        251279
#        277718
#        294561
#        313861
#
# Disc length: 4314 seconds
#
# Revision: 0
# Processed by: cddbd v1.5.2PL0 Copyright (c) Steve Scherf et al.
# Submitted via: ExactAudioCopy v0.99pb3
#
DISCID=f510d811
DTITLE=Bill Sheffield - Live At The Blue Raccoon
DYEAR=2002
DGENRE=Blues
TTITLE0=Mystery Train
TTITLE1=Dead Shrimp Blues
TTITLE2=Georgia Rag
TTITLE3=Soo Cow
TTITLE4=Route 66
TTITLE5=Prodigal Son
TTITLE6=Ice Cream Man
TTITLE7=Natural Born Lover
TTITLE8=Police Dog Blues
TTITLE9=Bring It On Home
TTITLE10=From Four Until Late
TTITLE11=Driver's Blues
TTITLE12=Roll With Me
TTITLE13=Keep It Clean
TTITLE14=Black Eye Blues (Bonus Track)
TTITLE15=Blow Wind Blow (Bonus Track)
TTITLE16=Pasties And A G-String (Bonus Track)
EXTD=
EXTT0=
EXTT1=
EXTT2=
EXTT3=
EXTT4=
EXTT5=
EXTT6=
EXTT7=
EXTT8=
EXTT9=
EXTT10=
EXTT11=
EXTT12=
EXTT13=
EXTT14=
EXTT15=
EXTT16=
PLAYORDER=
